<svg xmlns="http://www.w3.org/2000/svg" fill="none" viewBox="0 0 57 52">
    <path fill="#000" stroke="#000" stroke-width=".2"
        d="M50.585 20.824a8.536 8.536 0 0 0 2.515-6.077 8.545 8.545 0 0 0-2.515-6.076c-3.351-3.352-8.797-3.352-12.148 0l-2.004 2.004-2.004-2.005a8.536 8.536 0 0 0-6.077-2.514 8.545 8.545 0 0 0-6.077 2.514 8.564 8.564 0 0 0-2.5 6.471H5.119a.64.64 0 0 0-.64.641v24.236l-3.46 4.815a.635.635 0 0 0-.05.666c.111.216.328.345.568.345h47.169a.642.642 0 0 0 .567-.344v-.001a.635.635 0 0 0-.05-.666l-3.46-4.815V25.641l4.823-4.817Zm-13.698-8.792.001-.001 2.455-2.455a7.32 7.32 0 0 1 10.341 0 7.268 7.268 0 0 1 2.145 5.171c0 1.955-.76 3.791-2.144 5.171l-5.008 5.008-8.244 8.239-13.247-13.247a7.32 7.32 0 0 1 0-10.342 7.263 7.263 0 0 1 5.171-2.139c1.955 0 3.791.76 5.171 2.14l2.455 2.454a.646.646 0 0 0 .904 0ZM44.8 40.858l2.665 3.705H2.785l2.664-3.705H44.8Zm-.314-1.277H5.76V16.423h14.175a8.532 8.532 0 0 0 2.346 4.4l13.65 13.65c.14.14.323.203.502.186H36.475a.631.631 0 0 0 .45-.185l7.562-7.557v12.664Z" />
    <path fill="#F6AC33" stroke="#F6AC33" stroke-width=".2"
        d="M19.94 32.006a3.4 3.4 0 0 0-3.392-3.381h-3.505a3.385 3.385 0 0 0-3.381 3.381v3.66a.64.64 0 1 0 1.282 0v-3.66c0-1.162.943-2.105 2.104-2.105h3.505c1.162 0 2.105.943 2.105 2.105v3.832a.64.64 0 1 0 1.282 0v-3.832ZM14.796 28.554a3.79 3.79 0 0 0 3.787-3.786 3.79 3.79 0 0 0-3.787-3.787 3.79 3.79 0 0 0-3.787 3.787 3.79 3.79 0 0 0 3.787 3.786Zm0-6.297a2.512 2.512 0 0 1 2.51 2.51 2.512 2.512 0 0 1-2.51 2.511 2.512 2.512 0 0 1-2.51-2.51 2.512 2.512 0 0 1 2.51-2.51Z" />
</svg>